Två barn i olika länder får varje natt besök av en ansiktslös inkräktare - en fruktansvärd varelse som försöker ta kontroll över dem. Oron och spänningen ökar när också deras föräldrar blir varse samma syner. Med INTRUDERS har den visionäre regissören Juan Carlos Fresnadillo (28 veckor senare) skapat en oroväckande thriller där verkligheten smälter samman med fantasin.


Format                         : Matroska
Format version                 : Version 2
File size                      : 752 MiB
Duration                       : 1h 35mn
Overall bit rate               : 1 097 Kbps
Writing application            : HandBrake 4863svn
Writing library                : libmkv 0.6.5

Video
ID                             : 1
Format                         : AVC
Format/Info                    : Advanced Video Codec
Format profile                 : High@L3.0
Format settings, CABAC         : Yes
Format settings, ReFrames      : 4 frames
Codec ID                       : V_MPEG4/ISO/AVC
Duration                       : 1h 35mn
Bit rate                       : 627 Kbps
Width                          : 720 pixels
Height                         : 432 pixels
Display aspect ratio           : 2.35:1
Original display aspect ratio  : 2.35:1
Frame rate mode                : Variable
Frame rate                     : 25.000 fps
Color space                    : YUV
Chroma subsampling             : 4:2:0
Bit depth                      : 8 bits
Scan type                      : Progressive
Bits/(Pixel*Frame)             : 0.081
Stream size                    : 430 MiB (57%)
Writing library                : x264 core 125
Language                       : English
Default                        : Yes
Forced                         : No
Color primaries                : BT.470-6 System B, BT.470-6 System G, BT.601-6 625, BT.1358 625, BT.1700 625 PAL, BT.1700 625 SECAM
Transfer characteristics       : BT.709-5, BT.1361
Matrix coefficients            : BT.601-6 525, BT.1358 525, BT.1700 NTSC, SMPTE 170M

Audio
ID                             : 2
Format                         : AC-3
Format/Info                    : Audio Coding 3
Mode extension                 : CM (complete main)
Format settings, Endianness    : Big
Codec ID                       : A_AC3
Duration                       : 1h 35mn
Bit rate mode                  : Constant
Bit rate                       : 448 Kbps
Channel(s)                     : 6 channels
Channel positions              : Front: L C R, Side: L R, LFE
Sampling rate                  : 48.0 KHz
Bit depth                      : 16 bits
Compression mode               : Lossy
Stream size                    : 307 MiB (41%)
Language                       : English
Default                        : Yes
Forced                         : No

Menu
00:00:00.000                   : Chapter 1
00:07:49.640                   : Chapter 2
00:14:59.280                   : Chapter 3
00:22:59.360                   : Chapter 4
00:32:26.320                   : Chapter 5
00:43:05.600                   : Chapter 6
00:48:45.800                   : Chapter 7
00:56:06.760                   : Chapter 8
01:03:59.360                   : Chapter 9
01:13:23.960                   : Chapter 10
01:21:14.800                   : Chapter 11
01:30:41.920                   : Chapter 12
 
http://bayimg.com/oaAEKaaeD